<?xml version="1.0" standalone="no"?>
<svg viewBox="0 0 200 200" xmlns="http://www.w3.org/2000/svg">
  <path fill="#2563EB" d="M42.1,-71.1C53.5,-66.3,61,-52.9,63.9,-39.6C66.9,-26.3,65.3,-13.2,65.6,0.2C65.9,13.5,68,27,61.2,33.7C54.5,40.4,38.9,40.3,27.2,49.5C15.5,58.6,7.7,77,-3.7,83.5C-15.2,89.9,-30.5,84.5,-38.8,73.4C-47.1,62.3,-48.5,45.6,-48.5,32.4C-48.5,19.2,-47.2,9.6,-48.1,-0.5C-49,-10.6,-52.1,-21.3,-48.2,-27.7C-44.3,-34.1,-33.3,-36.4,-24.1,-42.4C-14.9,-48.4,-7.4,-58.2,4,-65C15.3,-71.9,30.7,-75.8,42.1,-71.1Z" transform="translate(100 100)" />
</svg>
